# xmcd CD database file
#
# Track frame offsets:
#	150
#	37352
#	69029
#	113208
#	158593
#	214429
#	230667
#	271451
#	314537
#
# Disc length: 4554 seconds
#
# Revision: 0
# Processed by: cddbd v1.5.2PL0 Copyright (c) Steve Scherf et al.
# Submitted via: CDex 1.51
#
DISCID=8411c809
DTITLE=Puerto Rico Heineken JazzFest - Puerto Rico Heineken JazzFest 2007
DYEAR=2007
DGENRE=Jazz
TTITLE0=Remenbrance
TTITLE1=Boss City
TTITLE2=I Mean You
TTITLE3=Sandunga
TTITLE4=Woody n'You
TTITLE5=Moody's Mood
TTITLE6=Mo' Better Blues
TTITLE7=Layla 
TTITLE8=I'm a Woman 
EXTD=YEAR: 2007
EXTT0=
EXTT1=
EXTT2=
EXTT3=
EXTT4=
EXTT5=
EXTT6=
EXTT7=
EXTT8=
PLAYORDER=
